<svg xmlns="http://www.w3.org/2000/svg" viewBox="0 0 512 512">
  <rect width="512" height="512" rx="128" fill="#000000"/>
  <g fill="#ffffff">
    <!-- Dollar sign -->
    <path d="M280 80h-48v40c-35 5-64 28-64 68 0 45 35 58 76 68 28 7 36 15 36 28 0 15-15 28-40 28-20 0-35-8-44-20l-40 28c15 25 42 40 76 44v40h48v-40c35-5 64-28 64-68 0-45-35-58-76-68-28-7-36-15-36-28 0-15 15-28 40-28 20 0 35 8 44 20l40-28c-15-25-42-40-76-44V80z"/>
    <!-- Chart bars -->
    <rect x="80" y="340" width="40" height="92" rx="8"/>
    <rect x="140" y="300" width="40" height="132" rx="8"/>
    <rect x="200" y="320" width="40" height="112" rx="8"/>
  </g>
</svg>

